<?xml version="1.0" encoding="utf-8"?>
<!-- Generator: Adobe Illustrator 26.5.0, SVG Export Plug-In . SVG Version: 6.00 Build 0)  -->
<svg version="1.1" id="Layer_1" xmlns="http://www.w3.org/2000/svg" xmlns:xlink="http://www.w3.org/1999/xlink" x="0px" y="0px"
	 viewBox="0 0 342 67" style="enable-background:new 0 0 342 67;" xml:space="preserve">
<style type="text/css">
	.st0{fill:#F22929;}
	.st1{fill:#2D2D2D;}
	.st2{fill:#ED1C24;}
	.st3{font-family:'JuiceITC-Regular';}
	.st4{font-size:36px;}
</style>
<path class="st0" d="M29.5,6.7h36.3v3.2H29.5V6.7z"/>
<path class="st1" d="M67.8,12.6H29.2c-0.5,0-1-0.1-1.5-0.3s-0.9-0.5-1.2-0.9c-0.4-0.4-0.6-0.9-0.8-1.4c-0.2-0.5-0.2-1-0.2-1.6
	c0-1.1,0.4-2.1,1.1-2.9s1.7-1.3,2.7-1.3h38.6c0.5,0,1-0.2,1.4-0.6s0.6-0.9,0.6-1.5S69.7,1,69.3,0.6C68.9,0.2,68.4,0,67.8,0H29.2
	c-2.1,0.1-4.1,1-5.5,2.6c-1.5,1.6-2.3,3.6-2.3,5.8c0,0.3,0,0.7,0,1c0,0.2,0,0.3,0,0.5v48.7c0,2.2,0.8,4.3,2.3,5.8
	c1.5,1.6,3.4,2.5,5.5,2.6h38.6c0.5,0,1-0.2,1.4-0.6s0.6-0.9,0.6-1.5V14.8c0-0.6-0.2-1.1-0.6-1.5C68.9,12.9,68.4,12.6,67.8,12.6
	L67.8,12.6z"/>
<text transform="matrix(1.598 0 0 1 69.9004 48.9123)" class="st2 st3 st4">BookWorm</text>
<text transform="matrix(1 0 0 1 441 290.8898)" class="st3 st4">Lorem ipsum</text>
</svg>
